<?xml version="1.0" encoding="UTF-8" standalone="no"?>
<svg width="24px" height="24px" viewBox="0 0 24 24" version="1.1" xmlns="http://www.w3.org/2000/svg" xmlns:xlink="http://www.w3.org/1999/xlink" xmlns:sketch="http://www.bohemiancoding.com/sketch/ns">
    <!-- Generator: Sketch 3.5.2 (25235) - http://www.bohemiancoding.com/sketch -->
    <title>email-circle copy</title>
    <desc>Created with Sketch.</desc>
    <defs></defs>
    <g id="Page-1" stroke="none" stroke-width="1" fill="none" fill-rule="evenodd" sketch:type="MSPage">
        <g id="email-circle-copy" sketch:type="MSLayerGroup" fill="#D3B93F">
            <g id="Outline_Icons" sketch:type="MSShapeGroup">
                <g id="Group">
                    <path d="M18,6 L6,6 C4.897,6 4,6.897 4,8 L4,16 C4,17.103 4.897,18 6,18 L18,18 C19.103,18 20,17.103 20,16 L20,8 C20,6.897 19.103,6 18,6 L18,6 Z M19,16 C19,16.551 18.551,17 18,17 L6,17 C5.449,17 5,16.551 5,16 L5,8 C5,7.449 5.449,7 6,7 L18,7 C18.551,7 19,7.449 19,8 L19,16 L19,16 Z" id="Shape"></path>
                    <path d="M17.887,8.184 C17.712,7.97 17.397,7.939 17.183,8.113 L12,12.354 L6.816,8.113 C6.603,7.939 6.288,7.97 6.113,8.184 C5.938,8.397 5.97,8.712 6.184,8.887 L9.802,11.847 L6.236,14.076 C6.002,14.222 5.931,14.531 6.077,14.765 C6.171,14.917 6.334,15 6.5,15 C6.59,15 6.682,14.976 6.765,14.924 L10.618,12.515 L11.683,13.387 C11.775,13.462 11.888,13.5 12,13.5 C12.112,13.5 12.225,13.462 12.316,13.387 L13.381,12.515 L17.234,14.924 C17.317,14.976 17.409,15 17.5,15 C17.667,15 17.83,14.917 17.924,14.765 C18.07,14.531 17.999,14.223 17.765,14.076 L14.199,11.847 L17.817,8.887 C18.03,8.712 18.062,8.397 17.887,8.184 L17.887,8.184 Z" id="Shape"></path>
                    <path d="M12,0 C5.383,0 0,5.383 0,12 C0,18.617 5.383,24 12,24 C18.617,24 24,18.617 24,12 C24,5.383 18.617,0 12,0 L12,0 Z M12,23 C5.935,23 1,18.066 1,12 C1,5.935 5.935,1 12,1 C18.065,1 23,5.935 23,12 C23,18.066 18.065,23 12,23 L12,23 Z" id="Shape"></path>
                </g>
            </g>
        </g>
    </g>
</svg>