<?xml version="1.0" encoding="UTF-8" standalone="no"?>
<svg width="23px" height="22px" viewBox="0 0 23 22" version="1.1" xmlns="http://www.w3.org/2000/svg" xmlns:xlink="http://www.w3.org/1999/xlink" xmlns:sketch="http://www.bohemiancoding.com/sketch/ns">
    <!-- Generator: Sketch 3.5.2 (25235) - http://www.bohemiancoding.com/sketch -->
    <title>logo-instagram</title>
    <desc>Created with Sketch.</desc>
    <defs></defs>
    <g id="Page-1" stroke="none" stroke-width="1" fill="none" fill-rule="evenodd" sketch:type="MSPage">
        <g id="logo-instagram" sketch:type="MSLayerGroup" fill="#EDD771">
            <g id="Filled_Icons" sketch:type="MSShapeGroup">
                <path d="M18,11 C18,14.3 15.3,17 12,17 C8.7,17 6,14.3 6,11 C6,7.7 8.7,5 12,5 C15.3,5 18,7.7 18,11 L18,11 Z M23,3.5 L23,4.2 L23,7.5 L23,17.8 C23,20.1 21.1,22 18.8,22 L5.1,22 C2.8,22 0.9,20.1 0.9,17.8 L0.9,7.5 L0.9,4.2 L0.9,3.5 C0.9,3.3 0.9,3 1,2.8 C1,2.6 1.1,2.4 1.2,2.3 L1.2,2.2 C1.4,1.8 1.6,1.4 1.9,1.1 L1.9,1.1 L1.9,1.1 C2.5,0.4 3.4,5.68434189e-14 4.4,5.68434189e-14 L6.9,5.68434189e-14 L16.9,5.68434189e-14 L19.4,5.68434189e-14 C21.4,1.13686838e-13 23,1.6 23,3.5 L23,3.5 Z M22,7.5 L18.1,7.5 C17.8,7 17.5,6.5 17,6.1 L17,6.1 C16.9,6 16.8,6 16.8,5.9 C16.7,5.8 16.6,5.7 16.4,5.6 C16.3,5.5 16.2,5.4 16.1,5.4 C16,5.3 15.8,5.2 15.7,5.1 C15.6,5 15.5,5 15.4,4.9 C15.2,4.8 15,4.7 14.7,4.6 C14.6,4.6 14.6,4.6 14.5,4.5 C14.3,4.4 14.1,4.3 13.9,4.3 C13.8,4.3 13.7,4.3 13.6,4.2 C13.4,4.2 13.2,4.1 13,4.1 L12.7,4.1 C12.4,4.1 12.1,4 11.8,4 C11.5,4 11.2,4 10.9,4.1 L10.6,4.1 C10.4,4.1 10.2,4.2 10,4.2 C9.9,4.2 9.8,4.2 9.7,4.3 C9.5,4.4 9.3,4.4 9.1,4.5 C9,4.5 9,4.5 8.9,4.6 C8.7,4.7 8.4,4.8 8.2,4.9 C8.1,5 8,5 7.9,5.1 C7.8,5.2 7.6,5.3 7.5,5.4 C7.4,5.5 7.3,5.5 7.2,5.6 C7.1,5.7 7,5.8 6.8,5.9 C6.7,6 6.6,6 6.6,6.1 L6.6,6.1 C6.2,6.5 5.8,7 5.5,7.5 L1.6,7.5 L1.6,17.8 C1.6,19.5 3,21 4.8,21 L18.5,21 C20.2,21 21.7,19.6 21.7,17.8 L21.7,7.5 L22,7.5 Z M22,2.5 C22,2.2 21.8,2 21.5,2 L18.5,2 C18.2,2 18,2.2 18,2.5 L18,5.5 C18,5.8 18.2,6 18.5,6 L21.5,6 C21.8,6 22,5.8 22,5.5 L22,4.2 L22,2.5 L22,2.5 Z" id="Shape"></path>
            </g>
        </g>
    </g>
</svg>