<?xml version="1.0" encoding="UTF-8" standalone="no"?>
<svg width="24px" height="24px" viewBox="0 0 24 24" version="1.1" xmlns="http://www.w3.org/2000/svg" xmlns:xlink="http://www.w3.org/1999/xlink" xmlns:sketch="http://www.bohemiancoding.com/sketch/ns">
    <!-- Generator: Sketch 3.5.2 (25235) - http://www.bohemiancoding.com/sketch -->
    <title>phone-circle copy 2</title>
    <desc>Created with Sketch.</desc>
    <defs></defs>
    <g id="Page-1" stroke="none" stroke-width="1" fill="none" fill-rule="evenodd" sketch:type="MSPage">
        <g id="phone-circle-copy-2" sketch:type="MSLayerGroup" fill="#D3B93F">
            <g id="Outline_Icons" sketch:type="MSShapeGroup">
                <path d="M12,0 C5.383,0 0,5.383 0,12 C0,18.617 5.383,24 12,24 C16.38,24 17.979,22.359 18.549,20.983 C19.016,19.857 18.876,18.718 18.609,18.076 L18.942,17.743 C19.336,17.348 19.568,16.836 19.596,16.301 C19.625,15.745 19.433,15.232 19.055,14.855 L17.506,13.306 C16.769,12.569 15.414,12.624 14.619,13.42 L14.364,13.674 C12.91,12.471 11.526,11.088 10.326,9.636 L10.58,9.382 C11.408,8.555 11.459,7.259 10.695,6.493 L9.145,4.944 C8.409,4.207 7.053,4.263 6.258,5.06 L5.313,6.003 C4.337,6.979 4.121,8.471 4.8,9.549 C7.242,13.421 10.58,16.759 14.452,19.2 C14.864,19.461 15.349,19.598 15.854,19.598 C16.555,19.598 17.246,19.321 17.799,18.85 C17.889,19.326 17.905,20.058 17.538,20.789 C16.813,22.236 14.897,23 12,23 C5.935,23 1,18.065 1,12 C1,5.935 5.935,1 12,1 C18.065,1 23,5.935 23,12 C23,14.234 22.335,16.384 21.076,18.217 C20.92,18.445 20.977,18.756 21.205,18.912 C21.433,19.068 21.745,19.01 21.9,18.783 C23.274,16.783 24,14.437 24,12 C24,5.383 18.617,0 12,0 L12,0 Z M14.985,18.354 C11.238,15.992 8.008,12.762 5.645,9.015 C5.213,8.329 5.371,7.359 6.021,6.71 L6.966,5.767 C7.197,5.535 7.504,5.402 7.807,5.402 C8.053,5.402 8.278,5.491 8.439,5.652 L9.988,7.2 C10.363,7.575 10.311,8.236 9.873,8.675 L9.3,9.248 C9.12,9.429 9.104,9.715 9.263,9.914 C10.664,11.664 12.332,13.331 14.086,14.737 C14.284,14.895 14.572,14.882 14.752,14.7 L15.327,14.127 C15.746,13.708 16.44,13.654 16.801,14.013 L18.35,15.562 C18.524,15.737 18.613,15.98 18.599,16.249 C18.584,16.538 18.454,16.817 18.236,17.037 L17.29,17.98 C16.66,18.612 15.655,18.775 14.985,18.354 L14.985,18.354 Z" id="Shape"></path>
            </g>
        </g>
    </g>
</svg>