<?xml version="1.0" encoding="UTF-8" standalone="no"?>
<svg width="30px" height="26px" viewBox="0 0 30 26" version="1.1" xmlns="http://www.w3.org/2000/svg" xmlns:xlink="http://www.w3.org/1999/xlink" xmlns:sketch="http://www.bohemiancoding.com/sketch/ns">
    <!-- Generator: Sketch 3.5.2 (25235) - http://www.bohemiancoding.com/sketch -->
    <title>shopping-cart-4 copy 2</title>
    <desc>Created with Sketch.</desc>
    <defs></defs>
    <g id="Page-1" stroke="none" stroke-width="1" fill="none" fill-rule="evenodd" sketch:type="MSPage">
        <g id="shopping-cart-4-copy-2" sketch:type="MSLayerGroup" fill="#D3B93F">
            <g id="Outline_Icons" sketch:type="MSShapeGroup">
                <path d="M26.009,19.3860952 L29.729,8.2432381 C29.79224,8.05504762 29.76,7.84704762 29.64344,7.68485714 C29.52688,7.52390476 29.33964,7.42857143 29.14,7.42857143 L7.20192,7.42857143 L5.56264,0.476666667 C5.49816,0.198095238 5.24768,0 4.96,0 L0.62,0 C0.27776,0 0,0.277333333 0,0.619047619 C0,0.960761905 0.27776,1.23809524 0.62,1.23809524 L4.46896,1.23809524 L9.16856,21.176381 C8.17036,21.4970476 7.44,22.4219048 7.44,23.5238095 C7.44,24.8894286 8.55228,26 9.92,26 C11.28772,26 12.4,24.8894286 12.4,23.5238095 C12.4,23.0706667 12.2698,22.6509524 12.05528,22.2857143 L21.42596,22.2857143 C21.2102,22.6509524 21.08,23.0706667 21.08,23.5238095 C21.08,24.8894286 22.19228,26 23.56,26 C24.92772,26 26.04,24.8894286 26.04,23.5238095 C26.04,22.1581905 24.92772,21.047619 23.56,21.047619 L10.41104,21.047619 L10.11964,19.8095238 L25.42,19.8095238 C25.6866,19.8095238 25.92344,19.6386667 26.009,19.3860952 L26.009,19.3860952 Z M11.16,23.5238095 C11.16,24.206 10.60448,24.7619048 9.92,24.7619048 C9.23552,24.7619048 8.68,24.206 8.68,23.5238095 C8.68,22.841619 9.23552,22.2857143 9.92,22.2857143 C10.60448,22.2857143 11.16,22.841619 11.16,23.5238095 L11.16,23.5238095 Z M24.8,23.5238095 C24.8,24.206 24.24448,24.7619048 23.56,24.7619048 C22.87552,24.7619048 22.32,24.206 22.32,23.5238095 C22.32,22.841619 22.87552,22.2857143 23.56,22.2857143 C24.24448,22.2857143 24.8,22.841619 24.8,23.5238095 L24.8,23.5238095 Z M9.82824,18.5714286 L7.49332,8.66666667 L28.28068,8.66666667 L24.9736,18.5714286 L9.82824,18.5714286 L9.82824,18.5714286 Z" id="Shape"></path>
            </g>
        </g>
    </g>
</svg>